<svg xmlns="http://www.w3.org/2000/svg" viewBox="0 0 81.83 62.23"><defs><style>.cls-1{fill:#ce3627;}</style></defs><g id="Layer_2" data-name="Layer 2"><g id="Layer_1-2" data-name="Layer 1"><path class="cls-1" d="M0,28.61A43.62,43.62,0,0,1,9.52,10.39a30.77,30.77,0,0,1,9.72-7.76A28.93,28.93,0,0,1,27.52,0,14.73,14.73,0,0,0,41.74,11,14.73,14.73,0,0,0,55.87.2,22.78,22.78,0,0,1,65.91,3c6,3.29,8.75,8.57,11.38,13.54a50.43,50.43,0,0,1,4.54,12.14H65.31q-2-3.28-4.09-6.56l0,39.87-40.46.29q.29-20,.56-40l-5.62,6.42Z"/></g></g></svg>