<svg xmlns="http://www.w3.org/2000/svg" viewBox="0 0 152.46 153.03"><defs><style>.cls-1{fill:#969696;}.cls-2{fill:#fff;}.cls-3{fill:#69bd45;}.cls-4{fill:#d3eef6;}</style></defs><g id="Layer_2" data-name="Layer 2"><g id="Layer_1-2" data-name="Layer 1"><path class="cls-1" d="M152.35,74.37c0-.62-.07-1.26-.12-1.9,0-.36,0-.71-.09-1.06s-.09-1-.14-1.44c-.08-.74-.17-1.48-.28-2.21-.07-.57-.16-1.14-.25-1.69s-.22-1.27-.34-1.88c-.22-1.21-.47-2.42-.77-3.6A74.68,74.68,0,0,0,146.92,50h0c-.24-.58-.49-1.17-.74-1.75l-.06-.13c-.31-.72-.64-1.43-1-2.13-.15-.33-.31-.67-.47-1h0A74.94,74.94,0,0,0,99.61,6.69l-1.48-.45a75.64,75.64,0,0,0-31.87-2l-1,.16-.68.12A74.89,74.89,0,0,0,9.35,47.66c-.27.63-.55,1.26-.83,1.92S8,51,7.69,51.66c-.13.35-.27.71-.4,1.08s-.26.73-.38,1.1-.27.76-.39,1.14c-.25.77-.49,1.54-.72,2.35-.12.4-.24.79-.34,1.19s-.23.85-.34,1.29-.25,1-.36,1.52c-.08.33-.17.67-.23,1s-.15.7-.22,1Q4.15,64.19,4,65t-.3,1.8c0,.09,0,.18,0,.26q-.27,1.77-.45,3.54c-.08.78-.14,1.55-.19,2.34-.13,1.76-.19,3.52-.19,5.31A74.49,74.49,0,0,0,19,124.73a3.07,3.07,0,0,0,.29.34,74.72,74.72,0,0,0,28.29,21.68h0a75,75,0,0,0,55.06,2c1-.33,1.94-.7,2.9-1.1.49-.2,1-.4,1.51-.62,1.57-.67,3.1-1.39,4.61-2.15l1.76-.94,1.67-.94,1.67-1c.54-.33,1.08-.68,1.6-1s1-.64,1.43-1,.83-.59,1.25-.87l1-.73c.82-.62,1.63-1.24,2.41-1.86l1-.85,1.24-1.06c.66-.58,1.29-1.15,1.9-1.72l.65-.61c.65-.62,1.27-1.24,1.86-1.84,1.23-1.25,2.42-2.54,3.54-3.89A74.33,74.33,0,0,0,152.15,85c0-.33.06-.66.08-1,.05-.62.09-1.25.12-1.88,0-.35,0-.7,0-1.06s0-.69.05-1c0-.62,0-1.24,0-1.88C152.46,76.85,152.42,75.61,152.35,74.37Zm-98.8,21.8a29.86,29.86,0,0,1-5.92-16.45v0c0-.49-.05-1-.05-1.47v0c0-.47,0-.94.05-1.4,0-.14,0-.29,0-.43s0-.48.05-.72l.09-.91,0-.25c0-.37.1-.74.16-1.12.1-.66.23-1.32.39-2a30.81,30.81,0,0,1,4.36-10h0A30,30,0,0,1,75.57,48.21a32,32,0,0,1,3.74.09,36,36,0,0,1,9.53,2v0A30.11,30.11,0,0,1,105,65.74h0l.27.61c.11.26.23.53.34.81.19.5.39,1,.58,1.62.11.29.2.6.29.9.21.68.38,1.36.53,2.06.06.29.13.6.18.91s.1.52.14.8,0,.28.07.41c.06.39.11.8.15,1.21,0,.17,0,.34,0,.53,0,.34.05.68.07,1s0,1,0,1.53v0c0,.51,0,1,0,1.51v.07a30,30,0,0,1-11.79,22.31l-.43.31a34.08,34.08,0,0,1-5.6,3.26l-.54.25a30.12,30.12,0,0,1-35.76-9.74Z"/><path class="cls-2" d="M148.09,70.41c0-.62-.07-1.25-.12-1.89q0-.52-.09-1c0-.47-.09-.94-.14-1.42-.08-.74-.17-1.47-.28-2.19s-.16-1.13-.25-1.68-.21-1.25-.33-1.86c-.22-1.2-.47-2.39-.77-3.56a73.66,73.66,0,0,0-3.4-10.51h0c-.24-.58-.48-1.15-.74-1.73a.69.69,0,0,0-.05-.13c-.32-.71-.64-1.41-1-2.11l-.47-1h0A74.27,74.27,0,0,0,95.85,3.37l-1.47-.44A74.13,74.13,0,0,0,74.1.12,74.88,74.88,0,0,0,62.82,1l-1,.16-.68.12A74.16,74.16,0,0,0,6.45,44c-.27.62-.55,1.25-.82,1.9s-.55,1.36-.82,2.06c-.13.35-.27.71-.4,1.07s-.26.72-.38,1.09-.26.75-.38,1.13c-.25.76-.49,1.53-.72,2.33-.12.39-.23.78-.33,1.18s-.23.84-.34,1.27S2,57,1.9,57.49c-.08.33-.16.66-.22,1s-.15.69-.22,1c-.11.54-.21,1.06-.3,1.58S1,62.28.86,62.88c0,.09,0,.18,0,.26C.65,64.3.5,65.47.38,66.64.3,67.41.24,68.18.19,69,.06,70.7,0,72.45,0,74.22a73.76,73.76,0,0,0,16.05,46.07l.28.33a74.14,74.14,0,0,0,28,21.48h0a74.32,74.32,0,0,0,54.54,1.95c1-.33,1.92-.7,2.87-1.09l1.5-.62q2.33-1,4.56-2.13l1.75-.93q.83-.45,1.65-.93l1.65-1c.54-.33,1.07-.67,1.59-1s1-.63,1.42-.94l1.23-.86,1-.73c.82-.61,1.62-1.22,2.39-1.84l1-.84,1.23-1.05c.66-.57,1.28-1.13,1.88-1.7l.64-.6c.65-.62,1.26-1.23,1.85-1.83q1.83-1.86,3.5-3.85a73.65,73.65,0,0,0,17.27-41.24c0-.32.06-.65.08-1q.08-.92.12-1.86c0-.34,0-.69,0-1s0-.68,0-1c0-.61,0-1.23,0-1.86C148.19,72.86,148.16,71.63,148.09,70.41ZM50.23,92a29.59,29.59,0,0,1-5.87-16.3v0c0-.48,0-1,0-1.45v0c0-.47,0-.93,0-1.39,0-.14,0-.28,0-.42s0-.48,0-.72.06-.59.09-.9l0-.25c.05-.36.1-.73.16-1.1q.15-1,.39-2a30.48,30.48,0,0,1,4.32-9.88h0A29.73,29.73,0,0,1,72,44.5a33.43,33.43,0,0,1,3.7.08,35.76,35.76,0,0,1,9.44,2v0a29.8,29.8,0,0,1,16,15.3h0c.08.2.17.4.26.6s.24.53.34.8c.19.5.39,1,.58,1.61.1.29.19.59.28.89.21.67.38,1.35.53,2,.06.29.13.59.18.9s.1.52.14.79l.06.41q.09.59.15,1.2c0,.17,0,.34.05.52,0,.34,0,.68.07,1,0,.5,0,1,0,1.52v0c0,.5,0,1,0,1.49v.07a29.7,29.7,0,0,1-11.68,22.1l-.42.31a34.5,34.5,0,0,1-5.55,3.23l-.53.24A29.83,29.83,0,0,1,50.23,92Z"/><path class="cls-3" d="M95.76,3.31A176.53,176.53,0,0,0,85.09,46.5v0a35.76,35.76,0,0,0-9.44-2,33.43,33.43,0,0,0-3.7-.08c-.6,0-1.18.05-1.73.09-1.23-8.72-2.9-18-5.14-27.69-1.24-5.44-2.59-10.65-4-15.65l.68-.12,1-.16a72.17,72.17,0,0,1,31.56,2Z"/><path class="cls-3" d="M148.1,74c0,.63,0,1.25,0,1.86,0,.34,0,.68,0,1s0,.71,0,1q0,.94-.12,1.86c0,.34,0,.67-.08,1A111.38,111.38,0,0,0,103.72,76c0-.1,0-.21,0-.31v-.07c0-.47,0-1,0-1.49v0c0-.48,0-1,0-1.52,0-.33,0-.68-.07-1,0-.18,0-.35,0-.52q-.06-.58-.15-1.2l-.06-.41c0-.27-.09-.53-.14-.79s-.12-.61-.18-.9c-.15-.69-.32-1.37-.53-2-.09-.3-.18-.6-.28-.89-.19-.57-.39-1.11-.58-1.61-.1-.27-.22-.54-.34-.8l-.26-.6h0a111.46,111.46,0,0,1,39.28-20.57A75,75,0,0,1,146,56.7c.27,1.15.53,2.33.77,3.56q.18.91.33,1.86c.09.55.18,1.11.25,1.68s.2,1.45.28,2.19c0,.48.1,1,.14,1.42s.07.7.09,1c.05.64.1,1.27.12,1.89C148.07,71.62,148.1,72.85,148.1,74Z"/><path class="cls-3" d="M130.53,122.06c-1,1.21-2.2,2.51-3.5,3.85s-2.76,2.73-4.37,4.13l-1.23,1.05-1,.84c-.77.62-1.57,1.23-2.39,1.84l-1,.73-1.23.86c-.46.31-.93.63-1.42.94s-1,.68-1.59,1l-1.65,1q-.83.48-1.65.93l-1.75.93c-1.56.79-3.09,1.5-4.56,2.13l-1.5.62c-1,.4-1.94.76-2.87,1.09-1.76-6.52-3.84-13.42-6.32-20.61-2.63-7.63-5.41-14.73-8.22-21.27q.62-.24,1.29-.54l.53-.24a34.5,34.5,0,0,0,5.55-3.23l.42-.31A35,35,0,0,0,95.42,95a229.94,229.94,0,0,1,20.9,14.78C121.54,113.92,126.27,118.06,130.53,122.06Z"/><path class="cls-3" d="M44.27,142.05q3.65-8.61,7.2-17.81,4.7-12.18,8.58-23.77a29.68,29.68,0,0,1-10.26-9A190.63,190.63,0,0,0,16,120.23a78.79,78.79,0,0,0,28.31,21.82Z"/><path class="cls-3" d="M49.33,57.5A30.48,30.48,0,0,0,45,67.38q-.24,1-.39,2c-.06.37-.11.74-.16,1.1l0,.25-.09.9c0,.25,0,.48-.05.72s0,.28,0,.42c0,.48,0,.94,0,1.39v0c0,.5,0,1,0,1.45v0a97.61,97.61,0,0,0-26.33-6.55A97.75,97.75,0,0,0,.1,68.9h0c.05-.75.12-1.52.2-2.32.11-1.12.26-2.28.44-3.5,0-.08,0-.17,0-.26.09-.6.19-1.19.3-1.78s.19-1,.3-1.58c.07-.34.14-.68.22-1s.14-.67.22-1c.11-.5.23-1,.36-1.51s.22-.85.34-1.27.21-.79.33-1.18c.23-.8.47-1.57.72-2.33.12-.38.25-.76.38-1.13s.25-.73.38-1.09.27-.72.4-1.07c.27-.7.54-1.39.82-2.06s.55-1.28.82-1.9c.7-1.55,1.4-3,2.09-4.27a164.55,164.55,0,0,1,25.49,9.56,161.53,161.53,0,0,1,15.37,8.31Z"/><path class="cls-4" d="M100.64,63.58c.12.26.23.52.34.8C100.88,64.11,100.76,63.85,100.64,63.58Z"/><path class="cls-4" d="M100.39,63c.09.2.17.41.25.61-.09-.2-.18-.4-.26-.6Z"/><path class="cls-4" d="M101,64.38a15.45,15.45,0,0,1,.58,1.61C101.37,65.42,101.17,64.88,101,64.38Z"/></g></g></svg>