<svg xmlns="http://www.w3.org/2000/svg" viewBox="0 0 85.23 73.91"><defs><style>.cls-1{fill:#f3d111;}.cls-2{fill:#51c9ef;}.cls-3{fill:#d6eff8;}</style></defs><g id="Layer_2" data-name="Layer 2"><g id="Layer_1-2" data-name="Layer 1"><path class="cls-1" d="M19.55,50.1A5.24,5.24,0,0,1,16,52c-4.59.06-8-9.11-10.25-15.26C2.53,28,0,21,2.93,18.19c2.57-2.45,6.5,1.16,14.21.66,11.63-.76,14.59-7.9,22.37-8.66C55.39,8.65,68.85,35.9,69.4,35.51S54.14,4,39.18,6.27c-5.55.84-6.2,5.54-14.86,8.5C12.53,18.78,6,12.68,2.11,16.4c-7.91,7.52,8.41,42.4,16.08,41,1.41-.25,2.32-1.68,2.83-2.66Z"/><path class="cls-1" d="M17.77,42.58c-1.59,6.71,2.57,16.58,11.38,19.49,7.75,2.56,16.76-1.06,21-8.89,4.76,4.87,11.24,7.18,16.92,5.63C77.22,56,81.42,41.89,77.43,34.38,72.89,25.85,58.43,27.16,49,28,41.92,28.67,20.63,30.6,17.77,42.58Z"/><path class="cls-2" d="M20.11,43.7c-1.18,5.82,3.63,14,11.3,15.83s16.05-3.14,18.44-11.71c3.8,6.22,11,9,17,7.14,8.23-2.58,11.54-13,9-18.51C71.76,27.6,52.09,30.37,46,31.23,38.2,32.33,22,34.62,20.11,43.7Z"/><path class="cls-1" d="M64.62,1.51A2.87,2.87,0,0,1,66.28.09,2.81,2.81,0,0,1,69.12,1c9.53,26.55,15.21,46.82,15.95,54.46.22,2.27.69,7.47-2.42,11.21a11,11,0,0,1-3.8,2.87L68,73.91a4.37,4.37,0,0,1-1.63-2,4.44,4.44,0,0,1,.13-3.49c1.88-.64,3.48-1.26,4.76-1.79,5.74-2.39,6.88-3.48,7.54-4.5a7.58,7.58,0,0,0,1.14-3.85C80.61,47.93,65,5.94,64.47,3.15A3,3,0,0,1,64.62,1.51Z"/><path class="cls-3" d="M36.25,33q2.43-.6,5.14-1.08c2.45-.43,4.78-.73,7-.94L38.51,59.41a15.63,15.63,0,0,1-11.42-1.34Z"/><path class="cls-3" d="M53.34,30.45c.69-.07,1.41-.12,2.15-.16.94-.05,1.83-.07,2.69-.08q-3.3,10.08-6.61,20.15a12,12,0,0,1-.86-1.09s-.26-.39-.58-.83L50,48.21c-.07-.11-.09-.16-.13-.16s-.1.13-.17.33l-.17.48a16.31,16.31,0,0,1-2.19,4.28,16.91,16.91,0,0,1-3.13,3.33Z"/></g></g></svg>