<svg xmlns="http://www.w3.org/2000/svg" viewBox="0 0 85.23 73.91"><defs><style>.cls-1{fill:#f3d111;}.cls-2{fill:#51c9ef;}.cls-3{fill:#d6eff8;}</style></defs><g id="Layer_2" data-name="Layer 2"><g id="Layer_1-2" data-name="Layer 1"><path class="cls-1" d="M65.68,50.1A5.24,5.24,0,0,0,69.24,52c4.59.06,8-9.11,10.24-15.26C82.7,28,85.28,21,82.3,18.19c-2.57-2.45-6.5,1.16-14.21.66C56.46,18.09,53.5,11,45.72,10.19,29.84,8.65,16.38,35.9,15.83,35.51S31.09,4,46.05,6.27c5.55.84,6.2,5.54,14.86,8.5,11.79,4,18.3-2.09,22.21,1.63C91,23.92,74.71,58.8,67,57.43c-1.41-.25-2.32-1.68-2.83-2.66Z"/><path class="cls-1" d="M67.46,42.58c1.59,6.71-2.58,16.58-11.38,19.49-7.75,2.56-16.76-1.06-21-8.89-4.76,4.87-11.24,7.18-16.92,5.63C8,56,3.81,41.89,7.8,34.38c4.54-8.53,19-7.22,28.44-6.36C43.31,28.67,64.6,30.6,67.46,42.58Z"/><path class="cls-2" d="M65.12,43.7c1.18,5.82-3.63,14-11.3,15.83s-16-3.14-18.45-11.71c-3.79,6.22-10.95,9-17,7.14-8.23-2.58-11.55-13-9-18.51,4.09-8.85,23.76-6.08,29.82-5.22C47,32.33,63.27,34.62,65.12,43.7Z"/><path class="cls-1" d="M20.61,1.51A2.87,2.87,0,0,0,19,.09,2.81,2.81,0,0,0,16.11,1C6.58,27.56.9,47.83.16,55.47c-.22,2.27-.69,7.47,2.42,11.21a11,11,0,0,0,3.8,2.87l10.88,4.36a4.37,4.37,0,0,0,1.63-2,4.49,4.49,0,0,0-.13-3.49c-1.88-.64-3.48-1.26-4.76-1.79-5.74-2.39-6.88-3.48-7.54-4.5a7.58,7.58,0,0,1-1.14-3.85C4.62,47.93,20.25,5.94,20.76,3.15A3,3,0,0,0,20.61,1.51Z"/><path class="cls-3" d="M49,33q-2.43-.6-5.14-1.08c-2.45-.43-4.78-.73-7-.94q4.9,14.22,9.83,28.44a15.63,15.63,0,0,0,11.42-1.34Z"/><path class="cls-3" d="M31.89,30.45c-.69-.07-1.41-.12-2.15-.16-.94-.05-1.83-.07-2.69-.08q3.3,10.08,6.61,20.15a10,10,0,0,0,.85-1.09s.27-.39.59-.83l.18-.23c.07-.11.09-.16.12-.16s.11.13.18.33l.17.48a16.31,16.31,0,0,0,2.19,4.28,16.91,16.91,0,0,0,3.13,3.33Z"/></g></g></svg>