<svg xmlns="http://www.w3.org/2000/svg" viewBox="0 0 309.63 310.63"><defs><style>.cls-1{fill:#fff;}.cls-2{fill:#f3d111;}.cls-3{fill:#ce3627;}.cls-4{fill:#eae8e8;}.cls-5{fill:#f9e2c4;}.cls-6{fill:#ce7bb3;}.cls-7{fill:#764f1f;}.cls-8{fill:#f491b0;}.cls-9{fill:#51c9ef;}.cls-10{fill:#d6eff8;}</style></defs><g id="Layer_2" data-name="Layer 2"><g id="Layer_1-2" data-name="Layer 1"><path class="cls-1" d="M50.9,180.4a67,67,0,0,0-24.51,8.51c-4.85,2.86-16.83,9.9-23.29,23.61h0s-5.43,22-1.9,37C5.38,267.2,22.49,277,37.53,285.63c27.54,15.79,55.15,18.63,92,22.43,13.39,1.38,23.73,1.8,28.59,1.95,16.55.52,36.18,1.14,58.9-2.63,15.88-2.63,50.31-9.19,76.94-33.36,5-4.51,10.24-10.26,13.27-18.72,6.77-18.9-2.79-37-4.76-40.51a54.59,54.59,0,0,0-13.62-16,80.24,80.24,0,0,0-19.17-12c-24.17-10.64-61-12.31-66.28-12.53-37.8-1.51-56.7-2.27-81.7-1C103.47,174.17,79.3,176.1,50.9,180.4Z"/><path class="cls-2" d="M224.86,208.66c3-.93,31.74-9.12,56.51,9.53,19.82,14.92,23.46,36.73,24.11,41.26,1.8-4.47,7.54-20.31,1-37.94-4.81-12.95-13.71-20.07-18.64-24-3.68-2.94-17.84-13.94-37-13.79-4.79,0-11.46.18-18.13,4.51a29.06,29.06,0,0,0-9.83,11Q223.87,204,224.86,208.66Z"/><path class="cls-3" d="M155.75,232.15A101.62,101.62,0,0,0,173,233a100.49,100.49,0,0,0,20.59-2.9,84.53,84.53,0,0,1,23.15,20.09c16.77,21.08,18.43,44.36,18.6,53.29A251.73,251.73,0,0,1,158.13,310Q156.95,271.09,155.75,232.15Z"/><path class="cls-2" d="M108.78,224.66a119,119,0,0,0-28.86,76.66,185.69,185.69,0,0,1-28.43-8.75c-14.08-5.63-28.06-11.39-39.91-24.85a72.64,72.64,0,0,1-6.43-8.49,134.76,134.76,0,0,1,71.54-47.68,58.12,58.12,0,0,0,32.09,13.11Z"/><path class="cls-3" d="M78.46,194.76A90.68,90.68,0,0,0,9,203.13a71.18,71.18,0,0,1,18.88-15.07A79,79,0,0,1,43,181.93c20.23-6.55,31.4-4.36,34.06-3.75a18.22,18.22,0,0,1,8,3.77,17.77,17.77,0,0,1,5,7.07,49.2,49.2,0,0,0-6.29,2.62A48.66,48.66,0,0,0,78.46,194.76Z"/><path class="cls-3" d="M179.07,185A12.4,12.4,0,0,1,186,173.14l22.89,1.42a22.94,22.94,0,0,0-6.5,5.5,23.2,23.2,0,0,0-3.4,5.75c-3.6.1-7.47.08-11.58-.13C184.5,185.53,181.72,185.29,179.07,185Z"/><path class="cls-2" d="M144.1,184l-14.46.35a29.5,29.5,0,0,0-18.83-10.5q7-.51,14.39-.83c4.22-.18,8.34-.29,12.38-.36a18,18,0,0,1,3.2,3.36A18.8,18.8,0,0,1,144.1,184Z"/><path class="cls-4" d="M73.33,208.88c-1.36-4.34,1.15-8.72,2.08-10.35,4-7,15.64-15.8,72.86-16.43,59.09-.65,68.59,8.54,72.42,14.39,1.16,1.77,5.91,9.22,3.58,16.85C219.89,227.64,194,230.6,173,233c0,0-36,4.1-69.2-7.15-3.18-1.08-5.92-2.25-10.21-4.09C75.65,214.11,73.9,210.69,73.33,208.88Z"/><path class="cls-5" d="M86.47,130.45c-1.15,5.29-5.38,27.52,7.83,47.32,19.66,29.44,59.18,25.46,64.34,24.85,20.79-2.44,51-15.11,59.24-43.57,5.41-18.7-1.23-35.35-4.09-41.54-18.73-28.93-52.71-42-82-33C99.28,94.47,87.69,126.88,86.47,130.45Z"/><path class="cls-5" d="M126.48,199.13c-8,4-30.79,15.6-47,25.53-4.1,2.51-11.9,7.45-11.23,12.25A4.57,4.57,0,0,0,70.14,240c2.18,1.36,6,.23,9.36-3.07.88,2.07,2.43,3.31,3.43,3.07s2.15-2.55,1.34-5.45l40.51-24.34L115,229.08a199.9,199.9,0,0,0,36.2,4.57,199.28,199.28,0,0,0,34.72-1.84c-5.69-11.42-10.15-20.43-10.07-20.47l0,0c.68,1,36.77,24.17,36.77,24.17-.74,2.33.32,4.41,1.53,4.77s3.46-.95,3.91-3.58c1,.89,6.77,5.8,10.39,3.92a5.36,5.36,0,0,0,2.34-3.3c1-3.66-8.42-12.86-58.34-37.89Z"/><path class="cls-6" d="M122.33,201.22l2.45,9L115,229.08a140.66,140.66,0,0,0,70.92,2.73l-10-20.43L177,201.22l-4.59-1.75a18,18,0,0,1-3.83,6.72c-10,10.79-34.67,8-40.76-3a12.53,12.53,0,0,1-1.37-4Z"/><path class="cls-7" d="M150.73,108.15s.26,20.17,0,20.68-37,3.83-37,3.83l-3.06-13.79-2.55,15.58-16.86,1.27L88.44,115l-.3,50.22c-2.34-3.1-16.5-22.57-11.19-47.67C81.26,97.22,95.69,86,100.44,82.36c12.49-9.46,25-11.62,33.7-13,11.87-1.91,37.92-6.11,60.76,10.72,3.18,2.34,22.37,17,26.3,43.07a64.29,64.29,0,0,1-1.47,26q-6.16-14.22-12.32-28.42l-12.76.51L187.1,95.89,189,123.47l-34.72,2.29Z"/><path class="cls-6" d="M75.78,129.83a301.11,301.11,0,0,1,143.47-15.37,68.7,68.7,0,0,0-5.2-12.33,67.39,67.39,0,0,0-9.49-13.39A76.35,76.35,0,0,0,194,79.39c-8-5.73-30.81-15.18-59.31-11.58-4.2.53-36,5-51.28,32.48A61.43,61.43,0,0,0,75.78,129.83Z"/><circle class="cls-5" cx="86.21" cy="160.66" r="13.28"/><circle class="cls-5" cx="217.58" cy="145.85" r="13.28"/><path d="M111,148.77a44.42,44.42,0,0,1,28.62-1.88A23.57,23.57,0,0,0,111,148.77Z"/><path d="M163.93,145.33a44.26,44.26,0,0,1,28.62-1.88,23.58,23.58,0,0,0-28.62,1.88Z"/><path d="M139.77,167.65a32.8,32.8,0,0,0,29.36-2.39A16.16,16.16,0,0,1,167,178.54a15.19,15.19,0,0,1-9.53,6.13,15.47,15.47,0,0,1-12.26-3.41C139.12,176.14,139.7,168.38,139.77,167.65Z"/><ellipse class="cls-8" cx="108.54" cy="156.47" rx="9" ry="2.55" transform="translate(-17.12 13.39) rotate(-6.54)"/><ellipse class="cls-8" cx="199.89" cy="148.77" rx="9" ry="2.55"/><path class="cls-8" d="M142.7,178.55a47.42,47.42,0,0,1,10-3.59,48.34,48.34,0,0,1,16.46-1,13.54,13.54,0,0,1-3.8,7,13.86,13.86,0,0,1-7.6,3.7,15.49,15.49,0,0,1-9.54-1.46A15.75,15.75,0,0,1,142.7,178.55Z"/><path d="M157.31,155.38a6.27,6.27,0,0,1-1.73,3,6.61,6.61,0,0,1-4.93,1.7c2.38,1.09,5,.48,6.13-1.19A4.54,4.54,0,0,0,157.31,155.38Z"/><path class="cls-2" d="M90.61,75.63c-2.71,11.81,4.77,29.12,20.3,34.1,13.67,4.38,29.46-2.11,36.83-16,8.45,8.5,19.88,12.47,29.85,9.65,17.76-5,24.95-30,17.81-43.11-8.11-14.94-33.52-12.41-50.12-10.75C132.86,50.79,95.45,54.52,90.61,75.63Z"/><path class="cls-9" d="M94.74,77.56c-2,10.26,6.59,24.59,20.1,27.67S143,99.47,147.11,84.36c6.77,10.87,19.39,15.72,30,12.3,14.43-4.66,20.1-23,15.54-32.68-7.32-15.51-41.88-10.34-52.53-8.75C126.38,57.29,97.84,61.56,94.74,77.56Z"/><path class="cls-2" d="M90.38,84.75a99.45,99.45,0,0,0-5.46,9.67,93.9,93.9,0,0,0-5.39,13.48c-.65,2.12-1.12,3.91-1.43,5.2a59,59,0,0,1,9.57-13.83A58.17,58.17,0,0,1,93.28,94Q91.84,89.37,90.38,84.75Z"/><path class="cls-2" d="M195.8,83.89a14.88,14.88,0,0,1,2.55.58,15.06,15.06,0,0,1,3.81,1.83c-.42-.47-.87-.94-1.35-1.42a41.86,41.86,0,0,0-4.15-3.61Z"/><path class="cls-2" d="M172.37,2.7a4.93,4.93,0,0,1,2.9-2.52,5,5,0,0,1,5,1.57c17.15,46.54,27.46,82.11,28.87,95.53.42,4,1.33,13.13-4.09,19.74a19.11,19.11,0,0,1-6.64,5.11L179.36,130a7.54,7.54,0,0,1-2.89-3.4,7.79,7.79,0,0,1,.17-6.13c3.3-1.16,6.11-2.28,8.34-3.24,10.05-4.28,12.05-6.21,13.2-8a13.62,13.62,0,0,0,1.95-6.79c1.07-18.3-27-91.92-28-96.82A5.3,5.3,0,0,1,172.37,2.7Z"/><path class="cls-10" d="M123,58.47c2.84-.71,5.85-1.38,9-2,4.31-.8,8.39-1.36,12.21-1.75l-16.86,50.16a27.41,27.41,0,0,1-20.11-2.19Z"/><path class="cls-10" d="M153,53.75c1.22-.12,2.48-.23,3.79-.31,1.64-.1,3.22-.15,4.73-.17L150.15,88.8a21.89,21.89,0,0,1-1.51-1.91s-.46-.68-1-1.44c-.23-.3-.2-.24-.32-.41s-.16-.27-.22-.27-.19.22-.31.58c-.19.54-.28.82-.29.85a29.35,29.35,0,0,1-9.23,13.45Z"/></g></g></svg>