<svg xmlns="http://www.w3.org/2000/svg" viewBox="0 0 315.12 283.69"><defs><style>.cls-1{fill:#f9e2c4;}.cls-2{fill:#ce7bb3;}.cls-3{fill:#764f1f;}.cls-4{fill:#f491b0;}.cls-5{fill:#f3d111;}.cls-6{fill:#51c9ef;}.cls-7{fill:#d6eff8;}</style></defs><g id="Layer_2" data-name="Layer 2"><g id="Layer_1-2" data-name="Layer 1"><path class="cls-1" d="M160.11,192.17c10.86-1,18.68,9.79,29.69,20.9,10.43,10.52,26.61,24.31,51,36.93a67.27,67.27,0,0,1,9.07-23.27c1.74-2.76,3-4.27,18.91-20.53,12.32-12.58,13.81-14,17.12-14.52,8.36-1.4,15.77,4.55,22.69,10.09,6.41,5.15,6.58,7.79,6.45,9-.31,2.87-3.17,5.75-6.34,6.37-7.2,1.39-11.47-9.81-17.8-8.86-2.86.42-5,3.15-10.48,16.57-7.26,18-7.46,23.23-12.18,32.06-2.81,5.25-7.54,14.08-15,19-26.13,17-75.14-21-83-27.09-14.19-11-31.71-24.58-28.87-39.26C143,200.94,151.47,192.94,160.11,192.17Z"/><path class="cls-1" d="M161.78,174.15c5.76-3.89,13.15-2.2,27.67,1.35,25.23,6.17,40.37,9.9,48.07,11.79a126.2,126.2,0,0,0,10.33-36.1c2.53-20-1-32.67,7.08-38.61,2.65-1.93,8-2,18.73-2.27,11.71-.25,21.57-.35,24.11,4.88a7.21,7.21,0,0,1-.23,6.51c-4.42,7.48-21.61-1.75-30,5.38-7,5.94-.65,17-2.12,39.76-1,15.08-2.09,32.28-13.2,42.43-9.43,8.61-24.49,7.75-54.61,6-24.39-1.38-36.69-2.25-41.84-10.79C150.17,195.3,153.21,179.94,161.78,174.15Z"/><path class="cls-1" d="M95.92,190.68a242.13,242.13,0,0,1,7.91,28.5c4,18.57,2.59,22.85,1.24,25.56-5,10-18.95,16.21-24.52,12.95-1.17-.68-2.73-2.19-4.77-1.85a5.42,5.42,0,0,0-4,4.06c-.57,2.52,1.5,3.3,1.34,5.67-.26,4.05-6.48,4.58-7.55,9.23a7.62,7.62,0,0,0,2.07,6.69c3.15,3.18,9.92,3.1,15.72-1.43,9.72-5.93,17.54-10.46,22.71-13.41,8.37-4.77,11.15-6.22,13.86-9.91,1.84-2.51,4.54-7.37,4.19-21.57a112.8,112.8,0,0,0-6.24-34l15.38,14.66q7.17-15.45,14.66-31.1,4.93-10.29,9.88-20.4c-12.51-5.05-22.32-9.12-22.21-9.41h0c.89,0,29.09-2.77,40.47-8.83a19.71,19.71,0,0,0,3.81-2.85,40,40,0,0,0,9-11.23c5.13-9.11,4.05-10.9,8.33-19.06,5.78-11.06,11.33-14.41,9.51-18.41a8.21,8.21,0,0,0-8.44-4.17c-4.9,1.07-6,8.55-10.2,8.4-1.93-.07-2.75-1.68-5-1.21a4.62,4.62,0,0,0-3.52,3.07c-.5,2,1.19,3.83,1.76,4.73,3,4.79-3.29,18.35-13.65,26-17.23,12.74-38,3.54-43.47,14.12-1.59,3.1-1.13,6.51-.62,8.64Z"/><path class="cls-2" d="M98,197.11l19.83,4.06c17.54,16.25,30.54,29.8,39.33,39.36,6.93,7.53,14.29,15.91,20.77,14.1,5.58-1.55,4.35-8.93,12.61-17.18,9.62-9.62,18.69-7,21-13.84,2.43-7.11-6.95-11-6.68-23.33.19-9.23,5.54-12,3.85-17.73-1.35-4.62-6-7-22.6-12.5-24-8-34.3-9.79-50.15-17.06-4.11-1.89-7.4-3.61-9.53-4.75q-1.45,2.94-2.89,5.89a16.21,16.21,0,0,1,4.89,5.69c4.4,8.73.08,21.63-7.21,24.87-7,3.14-14.06-5.6-20.89-1.42a9.61,9.61,0,0,0-4.16,5.34C95.07,192.82,97.6,196.49,98,197.11Z"/><path class="cls-1" d="M12.77,146.27c.45,5.23,2.9,27,20.82,41.61,26.66,21.65,62.15,6.63,66.76,4.58,18.57-8.22,42.94-28.63,42.41-57.37-.35-18.88-11.28-32.4-15.7-37.32C101.4,76.32,66.15,73.92,41.55,90.69,14.32,109.25,12.87,142.61,12.77,146.27Z"/><path class="cls-3" d="M65.69,107.48s6.84,18.33,6.77,18.88S39.9,142,39.9,142l-7.31-11.59,2.77,15.06-15,6.69-9.34-18,16.17,46c-3.15-2.07-22.46-15.21-25.83-39.87-2.73-20,6.76-35,9.92-39.87,8.32-12.73,19-18.79,26.52-22.92,10.22-5.64,32.63-18,59-10.1,3.66,1.09,26,8.16,38.11,30.72a62.23,62.23,0,0,1,7.15,24.18l-20.55-21.92L110.06,105,94.89,84.38l10.79,24.55-31,13.47Z"/><path class="cls-2" d="M4.34,151.82a292.22,292.22,0,0,1,126-61A66.44,66.44,0,0,0,108.5,72.13a73.9,73.9,0,0,0-12.74-5.07c-9.21-2.6-33.11-3.77-58,8.84-3.66,1.86-31.2,16.39-36.2,46.45A59.7,59.7,0,0,0,4.34,151.82Z"/><circle class="cls-1" cx="23.95" cy="176.56" r="12.88"/><circle class="cls-1" cx="139.08" cy="120.03" r="12.88"/><path d="M42.7,157.58A43.08,43.08,0,0,1,68.22,146.5a23.82,23.82,0,0,0-16.54,2.14A24.06,24.06,0,0,0,42.7,157.58Z"/><path d="M89.92,137.11A43.08,43.08,0,0,1,115.44,126a22.85,22.85,0,0,0-25.52,11.08Z"/><path d="M75.16,165.41a31.85,31.85,0,0,0,26-11.79,15.66,15.66,0,0,1,2.39,12.83,14.71,14.71,0,0,1-6.7,8.71,15,15,0,0,1-12.31.9C77.34,173.38,75.34,166.1,75.16,165.41Z"/><ellipse class="cls-4" cx="40.68" cy="164.06" rx="8.73" ry="2.48" transform="translate(-62.59 30.25) rotate(-23.74)"/><ellipse class="cls-4" cx="123.88" cy="128.49" rx="8.73" ry="2.48" transform="matrix(0.94, -0.34, 0.34, 0.94, -36.09, 49.33)"/><path class="cls-4" d="M81.4,174.4a46.63,46.63,0,0,1,22.65-12.87,13.21,13.21,0,0,1-1.17,7.68,13.44,13.44,0,0,1-5.72,5.86,15.1,15.1,0,0,1-9.2,1.8A15.4,15.4,0,0,1,81.4,174.4Z"/><path d="M87.16,148.46a6.18,6.18,0,0,1-.58,3.33,6.38,6.38,0,0,1-4,3.17,4.8,4.8,0,0,0,5.21-3.09A4.4,4.4,0,0,0,87.16,148.46Z"/><path class="cls-5" d="M.13,97.46c1.4,11.68,13.89,25,29.7,24.5,13.93-.47,26.23-11.57,28.42-26.63,10.5,5,22.24,4.88,30.42-1,14.57-10.42,13-35.54,2.16-45.21-12.3-11-34.68-.35-49.3,6.59C30.59,61-2.35,76.6.13,97.46Z"/><path class="cls-6" d="M4.54,97.88c1.54,10,14.07,20.29,27.42,18.68s23.85-14.49,22.63-29.62c9.75,7.71,22.86,8,31.43,1.41,11.66-9,10.82-27.61,3.5-34.94-11.77-11.76-41.64,4.27-50.84,9.21C26.8,69,2.13,82.24,4.54,97.88Z"/><path class="cls-5" d="M2.91,105.86A93.14,93.14,0,0,0,1.1,116.49a90.11,90.11,0,0,0-.52,14.07c.1,2.15.26,3.94.4,5.22A57.06,57.06,0,0,1,5.19,120a55.66,55.66,0,0,1,3.4-6.66Z"/><path class="cls-5" d="M98.91,70.57a15.48,15.48,0,0,1,2.52-.31,14.64,14.64,0,0,1,4.08.43c-.54-.29-1.11-.58-1.7-.85a38.29,38.29,0,0,0-5-1.94Z"/><path class="cls-5" d="M50.93,4.09A4.79,4.79,0,0,1,52.75.84,4.78,4.78,0,0,1,57.84.63c30.91,36.89,52,66,57.64,77.8,1.69,3.5,5.52,11.56,2.74,19.37a18.7,18.7,0,0,1-4.4,6.84L99,118a7.35,7.35,0,0,1-3.76-2.16,7.63,7.63,0,0,1-1.85-5.66c2.63-2.13,4.83-4.08,6.56-5.68,7.78-7.21,9-9.62,9.43-11.64a13.21,13.21,0,0,0-.44-6.84C103.9,69,54.12,11,51.65,6.79A5.15,5.15,0,0,1,50.93,4.09Z"/><path class="cls-7" d="M24.06,71.2q3.54-2.37,7.6-4.75c3.67-2.14,7.22-4,10.58-5.6q.51,25.66,1,51.34a26.9,26.9,0,0,1-10.67,4.44,26.6,26.6,0,0,1-8.41.13Q24.11,94,24.06,71.2Z"/><path class="cls-7" d="M49.92,57.07c1.08-.52,2.2-1,3.37-1.53,1.46-.63,2.88-1.19,4.26-1.7Q58.19,71.91,58.83,90a22,22,0,0,1-2-1.25s-.64-.47-1.42-1c-.31-.2-.27-.15-.43-.27s-.23-.19-.29-.17-.09.26-.09.63c0,.56,0,.84,0,.87a28.71,28.71,0,0,1-4,15.31Z"/></g></g></svg>