<svg xmlns="http://www.w3.org/2000/svg" viewBox="0 0 52.35 57.1"><defs><style>.cls-1{fill:#fff;}.cls-2{fill:#20c0db;}</style></defs><g id="Layer_2" data-name="Layer 2"><g id="Layer_1-2" data-name="Layer 1"><circle class="cls-1" cx="12.6" cy="20.6" r="12.6"/><circle class="cls-1" cx="27.14" cy="12.6" r="12.6"/><circle class="cls-1" cx="22.65" cy="25.21" r="12.6"/><circle class="cls-1" cx="39.75" cy="20.6" r="12.6"/><path class="cls-2" d="M10.14,38.59c-1-.24-3.58,3.34-2.45,5a2.06,2.06,0,0,0,2.39.7C11.72,43.43,11.17,38.83,10.14,38.59Z"/><path class="cls-2" d="M21.67,41.51c-1-.24-3.58,3.34-2.45,5a2.06,2.06,0,0,0,2.39.7C23.25,46.35,22.7,41.76,21.67,41.51Z"/><path class="cls-2" d="M33.3,39.89c-.92-.26-3.18,3.27-2.14,4.94a1.82,1.82,0,0,0,2.18.73C34.81,44.74,34.24,40.15,33.3,39.89Z"/><path class="cls-2" d="M43.35,37.83c-1-.25-3.58,3.33-2.45,5a2.07,2.07,0,0,0,2.4.7C44.94,42.66,44.39,38.07,43.35,37.83Z"/><path class="cls-2" d="M12.78,51.26c-1-.24-3.58,3.34-2.45,5a2.06,2.06,0,0,0,2.39.7C14.36,56.1,13.81,51.51,12.78,51.26Z"/><path class="cls-2" d="M26.7,51.26c-1-.24-3.58,3.34-2.45,5a2.06,2.06,0,0,0,2.39.7C28.29,56.1,27.73,51.51,26.7,51.26Z"/><path class="cls-2" d="M40.62,51.26c-1-.24-3.58,3.34-2.45,5a2.07,2.07,0,0,0,2.4.7C42.21,56.1,41.66,51.51,40.62,51.26Z"/></g></g></svg>