<svg xmlns="http://www.w3.org/2000/svg" viewBox="0 0 70.67 72.49"><defs><style>.cls-1{fill:#f3d111;}.cls-2{fill:#ce3627;}</style></defs><g id="Layer_2" data-name="Layer 2"><g id="Layer_1-2" data-name="Layer 1"><path class="cls-1" d="M5.15,5.33C-.45,11.53-.08,19.77.07,22.27c.38,6.58,2.77,8.64,6.29,17.19,7.43,18.08,4,26.46,11.38,31,3.53,2.17,8.65,2.9,11.86.73,4-2.68,3.91-9,3.87-12.83a36.52,36.52,0,0,0-2.66-13.08c-7.57-20.52,1.4-34.17-8-42.12A12.35,12.35,0,0,0,15.08,0C10,0,6.36,4,5.15,5.33Z"/><path class="cls-2" d="M13.56,15.52A45.73,45.73,0,0,0,9.09,20.3C6.27,23.76,3.66,27,2.49,31.78A19.79,19.79,0,0,0,2.94,43.4c.86,2.32,3,4.67,7.16,9.36,2.31,2.58,3.9,4,5.19,3.62a2.24,2.24,0,0,0,1.36-1.64c.48-2.24-3-4.08-6.81-8S3.59,40.4,3.48,37.31s2.39-5.81,7.36-11.53c1.94-2.23,3.66-4,4.9-5.2,13.44,8.88,15.65,14.08,15,17.25-.37,1.68-1.68,3.26-3.15,8.41-1.66,5.82-.83,6.72-.47,6.95a2,2,0,0,0,1.74-.11c1.21-.53,2.37-1.87,3.33-6.78.81-4.11,1.32-6.67.79-10.29a25,25,0,0,0-5.39-11.92,30.53,30.53,0,0,0-10.77-8.84,1.91,1.91,0,0,0-1-2,1.7,1.7,0,0,0-1.27,0A2.05,2.05,0,0,0,13.56,15.52Z"/><path class="cls-1" d="M65.52,5.33c5.59,6.2,5.23,14.44,5.08,16.94-.39,6.58-2.77,8.64-6.29,17.19-7.44,18.08-4,26.46-11.38,31-3.53,2.17-8.65,2.9-11.86.73-4-2.68-3.91-9-3.88-12.83a36.68,36.68,0,0,1,2.67-13.08c7.57-20.52-1.4-34.17,8-42.12A12.32,12.32,0,0,1,55.59,0C60.71,0,64.3,4,65.52,5.33Z"/><path class="cls-2" d="M57.11,15.52a45.73,45.73,0,0,1,4.47,4.78C64.39,23.76,67,27,68.18,31.78a19.87,19.87,0,0,1-.45,11.62c-.86,2.32-3,4.67-7.16,9.36-2.31,2.58-3.9,4-5.19,3.62A2.24,2.24,0,0,1,54,54.74c-.48-2.24,3-4.08,6.81-8s6.25-6.35,6.35-9.44S64.8,31.5,59.83,25.78c-1.94-2.23-3.67-4-4.9-5.2C41.48,29.46,39.27,34.66,40,37.83c.37,1.68,1.67,3.26,3.14,8.41,1.67,5.82.84,6.72.47,6.95-.59.39-1.47,0-1.74-.11-1.2-.53-2.36-1.87-3.33-6.78-.81-4.11-1.31-6.67-.78-10.29a25.14,25.14,0,0,1,5.38-11.92A30.63,30.63,0,0,1,53.9,15.25a1.89,1.89,0,0,1,1-2,1.69,1.69,0,0,1,1.27,0A2.05,2.05,0,0,1,57.11,15.52Z"/></g></g></svg>