<svg xmlns="http://www.w3.org/2000/svg" viewBox="0 0 58.79 46.51"><defs><style>.cls-1{fill:#fee848;}.cls-2{fill:#fff;}</style></defs><g id="Layer_2" data-name="Layer 2"><g id="Layer_1-2" data-name="Layer 1"><circle class="cls-1" cx="42.38" cy="16.69" r="9.97"/><rect class="cls-1" x="41.26" y="2.1" width="4.78" height="0.58" transform="translate(41.26 46.04) rotate(-90)"/><rect class="cls-1" x="48.19" y="3.99" width="4.78" height="0.58" transform="translate(21.58 45.94) rotate(-60)"/><rect class="cls-1" x="52.54" y="9.23" width="4.78" height="0.58" transform="translate(0.65 22.23) rotate(-23.01)"/><rect class="cls-1" x="54.01" y="15.98" width="4.78" height="0.58"/><rect class="cls-1" x="52.7" y="23.23" width="4.78" height="0.58" transform="matrix(0.87, 0.5, -0.5, 0.87, 19.14, -24.39)"/><rect class="cls-1" x="34.45" y="3.6" width="4.78" height="0.58" transform="translate(47.66 39.32) rotate(-113.01)"/><rect class="cls-1" x="28.79" y="7.4" width="4.78" height="0.58" transform="translate(54.33 29.93) rotate(-150)"/><circle class="cls-2" cx="12.6" cy="29.3" r="12.6"/><circle class="cls-2" cx="27.14" cy="21.3" r="12.6"/><circle class="cls-2" cx="22.65" cy="33.91" r="12.6"/><circle class="cls-2" cx="39.75" cy="29.3" r="12.6"/></g></g></svg>