<svg xmlns="http://www.w3.org/2000/svg" viewBox="0 0 53.33 80.11"><defs><style>.cls-1{fill:#ce7bb3;}</style></defs><g id="Layer_2" data-name="Layer 2"><g id="Layer_1-2" data-name="Layer 1"><path class="cls-1" d="M45.75,1.17,44.1,7.25c11.69,47.43,10.42,60.38,6.25,62.13-2.31,1-4.7-1.84-9.69-.7C32.3,70.6,31,80.3,25.78,80.1c-4.63-.17-5-7.76-12.81-10.72-4.82-1.83-7.42,0-9.68-1-4.66-2.18-5.77-15.69,6.2-60.28L8.68,1.17c1.06-.72,2.57-1.53,3.78-1,1.83.8,1.09,3.88,2.42,6.23,3.48,6.15,20.47,6,23.87-.18,1-1.89.84-4.39,2.77-5.36A5.14,5.14,0,0,1,45.75,1.17Z"/></g></g></svg>