<svg xmlns="http://www.w3.org/2000/svg" viewBox="0 0 53.33 80.11"><defs><style>.cls-1{fill:#ce7bb3;}</style></defs><g id="Layer_2" data-name="Layer 2"><g id="Layer_1-2" data-name="Layer 1"><path class="cls-1" d="M7.57,1.17,9.23,7.25C-2.47,54.68-1.2,67.63,3,69.38c2.31,1,4.7-1.84,9.69-.7C21,70.6,22.3,80.3,27.55,80.1c4.63-.17,5-7.76,12.8-10.72,4.83-1.83,7.43,0,9.69-1,4.66-2.18,5.77-15.69-6.21-60.28l.81-6.89c-1-.72-2.57-1.53-3.77-1C39,1,39.78,4.05,38.45,6.4,35,12.55,18,12.39,14.57,6.22c-1-1.89-.83-4.39-2.77-5.36C10.43.17,8.77.65,7.57,1.17Z"/></g></g></svg>