<svg xmlns="http://www.w3.org/2000/svg" viewBox="0 0 82.48 66.61"><defs><style>.cls-1{fill:#4a9142;}.cls-2{fill:#69bd45;}.cls-3{fill:#fff;}.cls-4{fill:#4752a4;}.cls-5{fill:#ce7bb3;}</style></defs><g id="Layer_2" data-name="Layer 2"><g id="Layer_1-2" data-name="Layer 1"><path class="cls-1" d="M49.61,64.11c-7.66-.65-15.21-2.57-22.9-2.78-4.09-.11-7.47,0-9.27-2.25-2.93-3.69.58-11,2-13.9C27.83,27.75,55.57,8.39,67.09.75L79.36,2a4,4,0,0,1,.78.77,4.8,4.8,0,0,1,.8,1.76,76,76,0,0,1,1.11,23.3c-2.33,17.38-2.6,15.51-2.79,20C78.78,59.54,81,62.24,78.47,65,75.72,68.14,72,66,49.61,64.11Z"/><path class="cls-2" d="M11.88,28.37c-1,9.92-4.54,22-1.28,25.77C12.68,56.58,15,56.22,20,56a76.65,76.65,0,0,1,15.23.81c17.11,2.53,25.67,3.79,29.65,5,2,.61,5.09,1.66,7.55.13s3.2-5.15,3.31-13.9c.11-9.26.18-14.79-.93-23.82-1.25-10.21-1.29-13.78-.24-16.15a6.58,6.58,0,0,1,.77-1.34,22.26,22.26,0,0,1,3.84-3.69c.54-.47.64-.54.63-.67C79.68,1.34,72.88,1.06,68.35.88,49.77.15,49.14-.11,37.56,0,33.25.1,28.38.36,22.34,1c-4.67.47-6.67.83-8.47,2.45C9,7.75,13.31,14.2,11.88,28.37Z"/><path class="cls-1" d="M10.82,35.65l-.48,2.42q10.41.27,21.27.89c15.39.89,30.12,2.26,44.13,4V40.42Q63.27,39,50.14,37.9,29.77,36.24,10.82,35.65Z"/><path class="cls-3" d="M15.59,38.9H9.17V23.37a4.43,4.43,0,0,1,3.54-1.5,4.29,4.29,0,0,1,2.88,1.5Z"/><path class="cls-4" d="M4,30.88a12.57,12.57,0,0,1,8.35-3A12.58,12.58,0,0,1,20,30.72c1.78,1.57,3.21,3.92,4.13,15,.91,11,1.31,16.48-1.55,18.57-1.07.78-3.86.73-9.4.59-6.84-.16-10.29-.26-11.43-1.19C-.68,61.81,0,56.05.52,44.57,1,35.53,1.84,32.87,4,30.88Z"/><path class="cls-3" d="M36.19,29.14H29.42V7.8c.14-.22,1.54-2.3,3.73-2.07a4.42,4.42,0,0,1,3,2.07Z"/><path class="cls-5" d="M23.93,18.11A11.32,11.32,0,0,1,32.73,14a11.35,11.35,0,0,1,8.06,3.93c1.88,2.15,3.39,5.39,4.36,20.66,1,15.06,1.38,22.65-1.63,25.52-1.13,1.07-4.07,1-9.92.81-7.22-.22-10.85-.36-12.06-1.63C19,60.62,19.7,52.71,20.29,36.92,20.75,24.51,21.68,20.85,23.93,18.11Z"/></g></g></svg>