<svg xmlns="http://www.w3.org/2000/svg" viewBox="0 0 82.48 66.61"><defs><style>.cls-1{fill:#4a9142;}.cls-2{fill:#69bd45;}.cls-3{fill:#fff;}.cls-4{fill:#4752a4;}.cls-5{fill:#ce7bb3;}</style></defs><g id="Layer_2" data-name="Layer 2"><g id="Layer_1-2" data-name="Layer 1"><path class="cls-1" d="M32.87,64.11c7.66-.65,15.21-2.57,22.9-2.78,4.08-.11,7.47,0,9.26-2.25,2.94-3.69-.58-11-2-13.9C54.64,27.75,26.9,8.39,15.39.75L3.12,2a4,4,0,0,0-.79.77,4.87,4.87,0,0,0-.79,1.76A76,76,0,0,0,.43,27.84c2.33,17.38,2.6,15.51,2.78,20C3.69,59.54,1.52,62.24,4,65,6.76,68.14,10.46,66,32.87,64.11Z"/><path class="cls-2" d="M70.59,28.37c1,9.92,4.55,22,1.29,25.77-2.09,2.44-4.38,2.08-9.35,1.88a76.62,76.62,0,0,0-15.23.81c-17.11,2.53-25.67,3.79-29.66,5-1.94.61-5.08,1.66-7.54.13s-3.2-5.15-3.31-13.9c-.12-9.26-.19-14.79.92-23.82C9,14.06,9,10.49,8,8.12a6.31,6.31,0,0,0-.78-1.34A21.6,21.6,0,0,0,3.35,3.09c-.55-.47-.64-.54-.63-.67C2.8,1.34,9.59,1.06,14.13.88,32.7.15,33.34-.11,44.92,0,49.23.1,54.1.36,60.14,1c4.66.47,6.66.83,8.47,2.45C73.44,7.75,69.17,14.2,70.59,28.37Z"/><path class="cls-1" d="M71.65,35.65l.49,2.42q-10.41.27-21.27.89c-15.4.89-30.13,2.26-44.14,4l0-2.51Q19.2,39,32.34,37.9,52.69,36.24,71.65,35.65Z"/><path class="cls-3" d="M66.89,38.9H73.3V23.37a4.42,4.42,0,0,0-3.54-1.5,4.26,4.26,0,0,0-2.87,1.5Z"/><path class="cls-4" d="M78.51,30.88a12.33,12.33,0,0,0-16-.16c-1.78,1.57-3.21,3.92-4.13,15-.92,11-1.31,16.48,1.54,18.57,1.07.78,3.87.73,9.41.59,6.84-.16,10.28-.26,11.43-1.19,2.38-1.92,1.74-7.68,1.19-19.16C81.52,35.53,80.64,32.87,78.51,30.88Z"/><path class="cls-3" d="M46.29,29.14h6.77V7.8c-.14-.22-1.54-2.3-3.74-2.07a4.42,4.42,0,0,0-3,2.07Z"/><path class="cls-5" d="M58.55,18.11a10.83,10.83,0,0,0-16.87-.21c-1.88,2.15-3.38,5.39-4.36,20.66-1,15.06-1.38,22.65,1.64,25.52,1.12,1.07,4.07,1,9.92.81,7.21-.22,10.85-.36,12-1.63,2.52-2.64,1.84-10.55,1.26-26.34C61.73,24.51,60.79,20.85,58.55,18.11Z"/></g></g></svg>