<svg xmlns="http://www.w3.org/2000/svg" viewBox="0 0 349.16 655.02"><defs><style>.cls-1{fill:#fff;}</style></defs><g id="Layer_2" data-name="Layer 2"><g id="Layer_1-2" data-name="Layer 1"><path class="cls-1" d="M.06,154.21c.85-1.5,11,7.53,24.84,6.36,14.79-1.24,18.75-12.79,31.07-13,5.67-.1,14,2.18,24.36,14.11-5.22-3.24-13.15-7-22.63-6.57-17.08.76-23.58,14.39-38.23,12.53C7.66,166.12-.77,155.66.06,154.21Z"/><path class="cls-1" d="M263.82,287.34c.86-1.5,11,7.53,24.85,6.36,14.79-1.24,18.75-12.79,31.06-13,5.68-.11,14,2.17,24.37,14.1-5.22-3.23-13.15-7-22.63-6.57-17.09.76-23.58,14.39-38.23,12.54C271.43,299.25,263,288.79,263.82,287.34Z"/><path class="cls-1" d="M268.89,29.17c.86-1.5,11,7.53,24.85,6.36,14.79-1.24,18.75-12.79,31.06-13,5.68-.11,14,2.17,24.36,14.1-5.22-3.23-13.15-7-22.62-6.57-17.09.76-23.59,14.39-38.23,12.54C276.5,41.08,268.06,30.62,268.89,29.17Z"/><path class="cls-1" d="M8.8,6.67c.86-1.5,11,7.53,24.85,6.36C48.44,11.78,52.4.23,64.71,0c5.68-.1,14,2.18,24.36,14.11-5.22-3.24-13.15-7-22.62-6.57C49.36,8.3,42.86,21.93,28.22,20.07,16.41,18.58,8,8.12,8.8,6.67Z"/><path class="cls-1" d="M31.68,469.89c.85-1.5,11,7.53,24.85,6.36,14.78-1.24,18.74-12.79,31.06-13,5.67-.11,14,2.17,24.36,14.1-5.22-3.24-13.15-7-22.63-6.57-17.08.76-23.58,14.39-38.23,12.53C39.28,481.8,30.85,471.34,31.68,469.89Z"/><path class="cls-1" d="M178.66,641.44c.85-1.5,11,7.53,24.84,6.36,14.79-1.24,18.75-12.79,31.06-13,5.68-.11,14,2.17,24.37,14.11-5.22-3.24-13.15-7-22.63-6.58-17.08.76-23.58,14.39-38.23,12.54C186.26,653.35,177.83,642.89,178.66,641.44Z"/></g></g></svg>