<svg xmlns="http://www.w3.org/2000/svg" viewBox="0 0 365.13 655.02"><defs><style>.cls-1{fill:#fff;}</style></defs><g id="Layer_2" data-name="Layer 2"><g id="Layer_1-2" data-name="Layer 1"><path class="cls-1" d="M16,154.21c.85-1.5,11,7.53,24.85,6.36,14.78-1.24,18.74-12.79,31.06-13,5.67-.1,14,2.18,24.36,14.11-5.22-3.24-13.15-7-22.63-6.57-17.08.76-23.58,14.39-38.23,12.53C23.63,166.12,15.19,155.66,16,154.21Z"/><path class="cls-1" d="M152.51,65.3c.85-1.49,11,7.54,24.85,6.37,14.79-1.25,18.74-12.8,31.06-13,5.68-.11,14,2.17,24.36,14.11-5.22-3.24-13.15-7-22.62-6.57-17.09.75-23.59,14.38-38.23,12.53C160.12,77.21,151.68,66.75,152.51,65.3Z"/><path class="cls-1" d="M279.79,156.72c.85-1.5,11,7.53,24.85,6.36,14.78-1.24,18.74-12.79,31.06-13,5.67-.11,14,2.17,24.36,14.1-5.22-3.24-13.15-7-22.63-6.57-17.08.76-23.58,14.39-38.23,12.53C287.39,168.63,279,158.17,279.79,156.72Z"/><path class="cls-1" d="M95.82,253.79c.85-1.49,11,7.54,24.84,6.37,14.79-1.25,18.75-12.8,31.07-13,5.67-.11,14,2.17,24.36,14.11-5.22-3.24-13.15-7-22.63-6.57-17.08.75-23.58,14.38-38.23,12.53C103.42,265.7,95,255.24,95.82,253.79Z"/><path class="cls-1" d="M279.79,287.34c.85-1.5,11,7.53,24.85,6.36,14.78-1.24,18.74-12.79,31.06-13,5.67-.11,14,2.17,24.36,14.1-5.22-3.23-13.15-7-22.63-6.57-17.08.76-23.58,14.39-38.23,12.54C287.39,299.25,279,288.79,279.79,287.34Z"/><path class="cls-1" d="M284.85,29.17c.86-1.5,11,7.53,24.85,6.36,14.79-1.24,18.75-12.79,31.06-13,5.68-.11,14,2.17,24.37,14.1-5.22-3.23-13.15-7-22.63-6.57-17.09.76-23.58,14.39-38.23,12.54C292.46,41.08,284,30.62,284.85,29.17Z"/><path class="cls-1" d="M24.77,6.67c.85-1.5,11,7.53,24.84,6.36C64.4,11.78,68.36.23,80.68,0c5.67-.1,14,2.18,24.36,14.11-5.22-3.24-13.15-7-22.63-6.57C65.33,8.3,58.83,21.93,44.18,20.07,32.37,18.58,23.94,8.12,24.77,6.67Z"/><path class="cls-1" d="M.06,342c.85-1.5,11,7.53,24.84,6.36,14.79-1.24,18.75-12.79,31.07-13,5.67-.11,14,2.17,24.36,14.1-5.22-3.23-13.15-7-22.63-6.57-17.08.76-23.58,14.39-38.23,12.54C7.66,353.88-.77,343.42.06,342Z"/><path class="cls-1" d="M47.64,469.89c.85-1.5,11,7.53,24.85,6.36,14.79-1.24,18.74-12.79,31.06-13,5.68-.11,14,2.17,24.36,14.1-5.22-3.24-13.15-7-22.62-6.57-17.09.76-23.59,14.39-38.24,12.53C55.25,481.8,46.81,471.34,47.64,469.89Z"/><path class="cls-1" d="M279.79,534.71c.85-1.5,11,7.53,24.85,6.36,14.78-1.25,18.74-12.8,31.06-13,5.67-.1,14,2.18,24.36,14.11-5.22-3.24-13.15-7-22.63-6.57-17.08.76-23.58,14.39-38.23,12.53C287.39,546.62,279,536.16,279.79,534.71Z"/><path class="cls-1" d="M194.62,641.44c.85-1.5,11,7.53,24.85,6.36,14.78-1.24,18.74-12.79,31.06-13,5.67-.11,14,2.17,24.36,14.11-5.22-3.24-13.15-7-22.63-6.58-17.08.76-23.58,14.39-38.23,12.54C202.23,653.35,193.79,642.89,194.62,641.44Z"/><path class="cls-1" d="M16,584.42c.85-1.49,11,7.54,24.85,6.37,14.78-1.25,18.74-12.8,31.06-13,5.67-.11,14,2.18,24.36,14.11-5.22-3.24-13.15-7-22.63-6.57-17.08.76-23.58,14.39-38.23,12.53C23.63,596.34,15.19,585.88,16,584.42Z"/></g></g></svg>