<svg xmlns="http://www.w3.org/2000/svg" viewBox="0 0 344.1 539.37"><defs><style>.cls-1{fill:#fff;}</style></defs><g id="Layer_2" data-name="Layer 2"><g id="Layer_1-2" data-name="Layer 1"><path class="cls-1" d="M136.55,6.67c.85-1.5,11,7.53,24.85,6.36,14.78-1.25,18.74-12.8,31.06-13,5.67-.1,14,2.18,24.36,14.11-5.22-3.24-13.15-7-22.63-6.57C177.11,8.3,170.61,21.93,156,20.07,144.16,18.58,135.72,8.12,136.55,6.67Z"/><path class="cls-1" d="M263.82,98.08c.86-1.49,11,7.54,24.85,6.37,14.79-1.25,18.75-12.8,31.06-13,5.68-.11,14,2.17,24.37,14.11-5.22-3.24-13.15-7-22.63-6.57-17.09.75-23.58,14.38-38.23,12.53C271.43,110,263,99.53,263.82,98.08Z"/><path class="cls-1" d="M263.82,476.07c.86-1.5,11,7.53,24.85,6.36,14.79-1.24,18.75-12.79,31.06-13,5.68-.11,14,2.17,24.37,14.11-5.22-3.24-13.15-7-22.63-6.57-17.09.75-23.58,14.38-38.23,12.53C271.43,488,263,477.52,263.82,476.07Z"/><path class="cls-1" d="M.06,525.79c.85-1.5,11,7.53,24.84,6.36,14.79-1.24,18.75-12.79,31.07-13,5.67-.11,14,2.17,24.36,14.1-5.22-3.24-13.15-7-22.63-6.57-17.08.76-23.58,14.39-38.23,12.53C7.66,537.7-.77,527.24.06,525.79Z"/></g></g></svg>