<svg xmlns="http://www.w3.org/2000/svg" viewBox="0 0 72.07 37.81"><defs><style>.cls-1{fill:#fff;}.cls-2{fill:none;stroke:#fff;stroke-miterlimit:10;stroke-width:1.5px;}</style></defs><g id="Layer_2" data-name="Layer 2"><g id="Layer_1-2" data-name="Layer 1"><circle class="cls-1" cx="12.6" cy="20.6" r="12.6"/><circle class="cls-1" cx="27.14" cy="12.6" r="12.6"/><circle class="cls-1" cx="22.65" cy="25.21" r="12.6"/><circle class="cls-1" cx="39.75" cy="20.6" r="12.6"/><path class="cls-2" d="M50.11,16.47c5.63,1.87,10.68.14,12.1-3,.92-2,.73-5.46-1.43-6.77C59,5.64,56.06,6,55.17,7.77c-.65,1.3-.26,3.53,1.1,4a2.83,2.83,0,0,0,3-1.48"/><path class="cls-2" d="M47.43,20.45a24.7,24.7,0,0,0,11,0c5.14-1.22,7.61-3.72,10.16-2.42C70.57,19,72,21.92,71,24c-.8,1.71-3.29,3-4.88,2.05-1.17-.66-2-2.58-1.19-3.62a2.65,2.65,0,0,1,3-.37"/><path class="cls-2" d="M35.09,24a24.8,24.8,0,0,0,10.75,2.51c5.29,0,8.25-1.9,10.44,0,1.67,1.41,2.38,4.55,1,6.34-1.17,1.49-3.87,2.14-5.22.89-1-.91-1.38-3-.33-3.79a2.63,2.63,0,0,1,3,.32"/></g></g></svg>